<?xml version="1.0" encoding="UTF-8" standalone="no"?>
<svg
   version="1.1"
   id="svg2"
   xml:space="preserve"
   width="512"
   height="512"
   viewBox="0 0 512 512"
   xmlns="http://www.w3.org/2000/svg"
   xmlns:svg="http://www.w3.org/2000/svg"
   xmlns:rdf="http://www.w3.org/1999/02/22-rdf-syntax-ns#"
   xmlns:cc="http://creativecommons.org/ns#"
   xmlns:dc="http://purl.org/dc/elements/1.1/"><metadata
     id="metadata8"><rdf:RDF><cc:Work
         rdf:about=""><dc:format>image/svg+xml</dc:format><dc:type
           rdf:resource="http://purl.org/dc/dcmitype/StillImage" /></cc:Work></rdf:RDF></metadata><defs
     id="defs6" /><g
     style="display:inline;stroke-width:0.99975;stroke-dasharray:none"
     id="g576"
     transform="matrix(1.3333333,0,0,-1.3333333,37.252005,129.70734)"><path
       d="M 0,0 164.062,94.719 328.122,0 V -189.439 L 164.061,-284.158 0,-189.439 Z"
       style="fill:#000000;fill-opacity:1;fill-rule:nonzero;stroke:none;stroke-width:0.99975;stroke-dasharray:none"
       id="path578" /></g><g
     style="display:inline;fill:#373737;fill-opacity:1"
     id="g596"
     transform="matrix(1.3333333,0,0,-1.3333333,423.73639,160.72164)"><path
       d="m 0,0 -33.909,19.532 -12.673,-7.334 -68.001,-39.359 -12.672,7.317 80.673,46.694 -33.152,19.14 -12.986,-7.515 -67.687,-39.178 -12.672,7.315 80.359,46.513 -33.285,19.579 -125.599,-72.698 125.847,-72.71 z"
       style="fill:#202020;fill-opacity:1;fill-rule:nonzero;stroke:none"
       id="path598" /></g><g
     style="display:inline"
     id="g580"
     transform="matrix(1.3333333,0,0,-1.3333333,270.95907,196.93654)"><path
       d="M 0,0 68.001,39.359 V 54.011 L -12.672,7.317 Z"
       style="fill:#f71e46;fill-opacity:1;fill-rule:nonzero;stroke:none"
       id="path582" /></g><g
     style="display:inline"
     id="g584"
     transform="matrix(1.3333333,0,0,-1.3333333,209.86013,161.65904)"><path
       d="m 0,0 67.688,39.178 v 14.65 L -12.672,7.315 Z"
       style="fill:#f71e46;fill-opacity:1;fill-rule:nonzero;stroke:none"
       id="path586" /></g><g
     style="display:inline;fill:#101010;fill-opacity:1"
     id="g588"
     transform="matrix(1.3333333,0,0,-1.3333333,256.06067,325.63162)"><path
       d="m 0,0 v 50.979 l -125.848,72.709 V 73.621 l 37.541,-21.946 -0.045,-94.583 50.489,-29.137 v 94.219 z"
       style="fill:#101010;fill-opacity:1;fill-rule:nonzero;stroke:none"
       id="path590" /></g><g
     style="display:inline"
     id="g592"
     transform="matrix(1.3333333,0,0,-1.3333333,423.73639,160.72164)"><path
       d="m 0,0 -125.757,-72.704 v -50.979 l 37.817,22.174 0.043,-94.219 50.466,29.137 -0.045,94.583 L 0,-50.062 Z"
       style="fill:#f71e46;fill-opacity:1;fill-rule:nonzero;stroke:none"
       id="path594" /></g><g
     style="display:inline"
     id="g600"
     transform="matrix(1.3333333,0,0,-1.3333333,205.57627,296.06652)"><path
       d="m 0,0 v -94.219 l 37.863,22.012 v 50.033 z"
       style="fill:#f71e46;fill-opacity:1;fill-rule:nonzero;stroke:none"
       id="path602" /></g><g
     style="display:inline"
     id="g604"
     transform="matrix(1.3333333,0,0,-1.3333333,256.06067,325.63162)"><path
       d="M 0,0 V -50.033 L 37.859,-72.045 37.816,22.174 Z"
       style="fill:#101010;fill-opacity:1;fill-rule:nonzero;stroke:none"
       id="path606" /></g></svg>
